<?xml version="1.0" encoding="utf-8"?>
<!-- Generator: Adobe Illustrator 16.0.3, SVG Export Plug-In . SVG Version: 6.00 Build 0)  -->
<svg version="1.2" baseProfile="tiny" xmlns="http://www.w3.org/2000/svg" xmlns:xlink="http://www.w3.org/1999/xlink" x="0px"
	 y="0px" width="365.234px" height="85px" viewBox="0 0 365.234 85" xml:space="preserve">
<g id="Layer_1" display="none">
	<rect display="inline" width="365.234" height="84.999"/>
</g>
<g id="Layer_2">
	<g>
		<path fill="#FFFFFF" d="M90.943,55.239h-2.687V37.566c0-0.25,0.095-0.981,0.287-2.193l-5.25,17.246h-0.574l-5.25-17.246
			c0.191,1.225,0.288,1.956,0.288,2.193v17.673h-2.687V27.33h2.646l5.209,18.155c0.027,0.095,0.055,0.362,0.082,0.803
			c0-0.179,0.027-0.446,0.082-0.803l5.209-18.155h2.646V55.239z"/>
		<path fill="#FFFFFF" d="M110.011,53.26c0,0.583-0.215,1.059-0.646,1.427c-0.431,0.368-0.981,0.553-1.651,0.553h-8.737
			c-0.67,0-1.217-0.185-1.641-0.553S96.7,53.843,96.7,53.26V27.33h2.851v25.716h7.608V27.33h2.851V53.26z"/>
		<path fill="#FFFFFF" d="M126.022,55.239h-10.254V27.33h2.851v25.716h7.403V55.239z"/>
		<path fill="#FFFFFF" d="M141.603,29.523h-4.963v25.716h-2.851V29.523h-5.004V27.33h12.818V29.523z"/>
		<path fill="#FFFFFF" d="M148.591,55.239h-2.851V27.33h2.851V55.239z"/>
		<path fill="#FFFFFF" d="M167.289,42.167c0,0.583-0.215,1.061-0.646,1.436c-0.431,0.374-0.981,0.562-1.651,0.562h-7.567v11.075
			h-2.851V27.33h10.418c0.67,0,1.22,0.185,1.651,0.553c0.431,0.369,0.646,0.844,0.646,1.427V42.167z M164.438,41.953v-12.43h-7.014
			v12.43H164.438z"/>
		<path fill="#FFFFFF" d="M182.686,55.239h-10.254V27.33h2.851v25.716h7.403V55.239z"/>
		<path fill="#FFFFFF" d="M200.153,55.239h-2.83l-1.128-6.206h-6.378l-1.128,6.206h-2.748v-0.071l5.722-27.91h2.81L200.153,55.239z
			 M195.826,46.84l-2.81-15.123l-2.83,15.123H195.826z"/>
		<path fill="#FFFFFF" d="M217.539,27.49l-3.896,11.289c-0.492,1.129-1.142,3.014-1.948,5.653v10.808h-2.851V44.432
			c-0.192-0.902-0.486-1.854-0.882-2.853c-0.656-1.712-1.012-2.645-1.067-2.8l-3.896-11.289c0-0.012,0-0.065,0-0.161h2.892
			l4.41,13.964l4.368-13.964h2.871C217.539,27.413,217.539,27.466,217.539,27.49z"/>
		<path fill="#FFFFFF" d="M232.197,55.239h-10.542V27.33h10.418v2.193h-7.567v10.415h6.891v2.229h-6.891v10.879h7.69V55.239z"/>
		<path fill="#FFFFFF" d="M250.937,55.239h-2.995l-5.968-14.945l0.39-0.499h5.086V29.523h-7.321v25.716h-2.851V27.33h10.747
			c0.67,0,1.217,0.185,1.641,0.553c0.424,0.369,0.636,0.844,0.636,1.427v10.593c0,1.344-1.04,2.015-3.118,2.015
			c-0.205,0-0.506-0.009-0.902-0.027c-0.396-0.018-0.684-0.027-0.861-0.027C247.265,46.311,249.104,50.77,250.937,55.239z"/>
		<path fill="#FFFFFF" d="M278.345,55.239h-2.995l-5.968-14.945l0.39-0.499h5.086V29.523h-7.321v25.716h-2.851V27.33h10.747
			c0.67,0,1.217,0.185,1.641,0.553c0.424,0.369,0.636,0.844,0.636,1.427v10.593c0,1.344-1.04,2.015-3.118,2.015
			c-0.205,0-0.506-0.009-0.902-0.027c-0.396-0.018-0.684-0.027-0.861-0.027C274.674,46.311,276.513,50.77,278.345,55.239z"/>
		<path fill="#FFFFFF" d="M296.797,53.26c0,0.583-0.215,1.059-0.646,1.427c-0.431,0.368-0.981,0.553-1.651,0.553h-8.983
			c-0.67,0-1.217-0.185-1.641-0.553s-0.636-0.844-0.636-1.427V29.309c0-0.583,0.212-1.058,0.636-1.427
			c0.424-0.368,0.971-0.553,1.641-0.553h8.983c0.67,0,1.22,0.185,1.651,0.553c0.431,0.369,0.646,0.844,0.646,1.427V53.26z
			 M293.946,53.046V29.523h-7.854v23.523H293.946z"/>
		<path fill="#FFFFFF" d="M315.413,53.26c0,0.583-0.212,1.059-0.636,1.427s-0.971,0.553-1.641,0.553h-10.583V27.33h10.5
			c0.67,0,1.217,0.185,1.641,0.553c0.424,0.369,0.636,0.844,0.636,1.427v8.292c0,0.737-0.383,1.355-1.148,1.855
			c-0.752,0.392-1.504,0.785-2.256,1.177l2.42,1.355c0.711,0.381,1.066,0.975,1.066,1.783V53.26z M312.46,37.923v-8.4h-7.055v10.076
			h4.204L312.46,37.923z M312.542,53.046v-9.648l-2.892-1.641h-4.245v11.289H312.542z"/>
		<path fill="#FFFFFF" d="M334.583,53.26c0,0.583-0.215,1.059-0.646,1.427c-0.431,0.368-0.981,0.553-1.651,0.553h-8.983
			c-0.67,0-1.217-0.185-1.641-0.553s-0.636-0.844-0.636-1.427V29.309c0-0.583,0.212-1.058,0.636-1.427
			c0.424-0.368,0.971-0.553,1.641-0.553h8.983c0.67,0,1.22,0.185,1.651,0.553c0.431,0.369,0.646,0.844,0.646,1.427V53.26z
			 M331.732,53.046V29.523h-7.854v23.523H331.732z"/>
		<path fill="#FFFFFF" d="M351.395,29.523h-4.963v25.716h-2.851V29.523h-5.004V27.33h12.818V29.523z"/>
	</g>
</g>
<g id="Layer_4">
	<path fill="#FFFFFF" d="M32.2,40.126l0.007,1.239l-11.455,4.731l-4.269-3.705l-0.098,0.604l-3.178,1.434
		c0,0-0.326,1.618,0.058,3.032c0.12,0.438,0.736,1.922,1.091,2.61c0.68,1.319,2.125,2.142,2.125,2.142l1.631-0.19l1.01,2.879
		c0,0,0.335,2.063,0.576,2.93c0.24,0.863,1.152,3.408,1.152,3.408l-0.528,1.346l-1.344,1.103l-0.049,1.057l-0.048,1.104
		c0,0-1.152,0.865-1.681,1.489c-0.529,0.624-0.385,2.495-0.385,2.495l2.401,2.259l3.505-1.489l1.634,1.92l0.912,0.865l0.734,0.714
		l0.755,0.678l2.591,1.585l1.585-0.672l0.335-1.104l2.941-1.152l0.624,0.624l1.202-0.673c0,0-0.048-0.961-0.192-1.68
		c-0.145-0.722-0.96-2.306-0.96-2.306l-1.273-4.18l2.318-1.149c0-0.385-1.874-2.784-1.874-2.784
		c-0.624-0.77-2.113-1.873-2.113-1.873l-1.057-2.208c-0.144-0.53-1.729-3.984-1.729-3.984s0.338-0.049,2.113-1.296l1.635-1.875
		l4.319-2.863l-0.688-3.7l1.584,1.221l2.145,2.848l1.025,0.128l1.601,0.128l1.854,0.352l0.177,1.217l1.665,1.247
		c-0.434,0.098-1.489,0.771-1.489,0.771l-0.095,1.487c0,0-0.434,0.288-0.962,1.01c-0.528,0.719-0.624,1.879-0.624,1.879l3.072,3.328
		l2.944-1.28l1.153-0.384l1.535,1.92l0.864,0.933l0.957,0.874l1.176,0.877l1.573,1.311l1.296-0.672v-0.553l2.568-1.272l1.105,0.36
		l1.105-0.553c0,0-0.122-1.327-0.542-1.922c-0.518-0.738-1.375-2.113-1.375-2.113l-1.455-2.61l0.202-1.66l1.054-0.79
		c0,0-1.053-2.354-1.654-2.658c-0.601-0.303-1.511-0.585-1.511-0.585s-0.24-1.296-0.481-2.881c-0.241-1.583-1.345-3.696-1.345-3.696
		l3.122-2.976l0.047-1.537c0,0,1.217-1.285,1.085-2.348c-0.096-0.767-0.509-2.369-0.797-2.944c-0.172-0.346-0.848-0.95-1.363-1.378
		l-0.865,0.442l-1.384,3.303l-1.3,3.044l-1.881,3.791l-4.399,2.462l-3.653-0.207L32.2,40.126z"/>
	<polygon fill="#FFFFFF" points="18.892,33.763 16.345,34.933 16.297,40.355 21.036,44.454 30.762,40.421 30.762,39.74 
		30.053,39.546 27.434,36.295 22.215,37.931 	"/>
	<polygon fill="#FFFFFF" points="57.448,22.09 60.331,24.54 60.362,27.455 57.53,29.014 57.016,26.874 57.566,24.505 	"/>
	<path fill="#FFFFFF" d="M30.887,38.291l-2.955-3.648l-5.146,1.619l-2.504-3.054c0,0,0.127-1.085,0.682-2.642l0.305-2.155
		l-1.124-0.522l-2.058-2.639l0.242-1.556l-1.314-0.408l0.761-2.718l2.141-6.911l2.549,0.104c0,0-0.038-0.256-0.13-0.773
		c-0.016-0.088,0.426-0.228,0.695-0.301c0.928-0.25,1.723-0.379,1.723-0.379s3.261-1.137,4.976-1.536
		c1.713-0.398,5.219-1.094,5.219-1.094s2.106-0.321,3.019-0.321l2.781,0.181l3.263,1.395l6.054,2.397l2.044,2.096l3.709,2.745
		l0.311,6.205l-0.597,2.495l0.565,2.329l-3.206,7.601l-1.65,3.33l-3.683,2.044l-3.077-0.192L30.887,38.291z M45.169,35.218
		c0,1.411,1.143,2.554,2.554,2.554c1.41,0,2.552-1.143,2.552-2.554c0-1.409-1.143-2.553-2.552-2.553
		C46.312,32.665,45.169,33.809,45.169,35.218z"/>
</g>
</svg>
